**ABCDEFGHIJKLMNOPQRSTUVWXYZabcdefghijklmnopqrstuvwxyz**************************
**PARASOLID !"#$%&'()*+,-./:;<=>?@[\]^_`{|}~0123456789**************************
**PART1;
MC=AMD64;
MC_MODEL=Intel64 Family 6 Model 165 Stepping 5, GenuineIntel;
MC_ID=unknown;
OS=Windows_NT;
OS_RELEASE=unknown;
FRU=Parasolid Version 34.1, build 247, 10- 7-2022;
APPL=SOLIDWORKS 2023-2023096;
SITE=;
USER=unknown;
FORMAT=text;
GUISE=transmit;
KEY=makeProjectedPlanarWire;
FILE=makeProjectedPlanarWire.x_t;
DATE=Mon Oct 21 21:29:34 2024;
**PART2;
SCH=SCH_3401247_34101;
USFLD_SIZE=0;
**PART3;
**END_OF_HEADER*****************************************************************
T51 : TRANSMIT FILE created by modeller version 340124723 SCH_3401247_34101_1300
6231 0 12 36 CCCI7 lattice222 0 CCCI4 mesh1006 0 I8 polyline1008 0 CCCCCCCDI5 ow
ner1040 0 CCCI16 boundary_lattice222 0 CCCI13 boundary_mesh1006 0 I17 boundary_p
olyline1008 0 CCCA16 index_map_offset0 0 1 dA9 index_map82 0 A17 node_id_index_m
ap82 0 A20 schema_embedding_map82 0 A5 child12 0 A14 lowest_node_id0 0 1 dA16 me
sh_offset_data206 0 Z1 2259 0 0 0 0 0 0 0 0 0 1e3 1e-8 0 2 0 1 0 3 1 3 0 4 5 6 0
 0 7 8 9 0 0 0 0 0 0 0 13 255 3 352 0 1 0 10 0 0 7 10 50 255 4 3 0 10 0 0 0 +0 0
 0 0 1 0 0 0 1 30 255 5 227 0 8 11 0 0 +-.324603634389921 0 -.105470114282068 -.
3090169943749415 0 .951056516295156 29 255 6 347 0 9 12 0 -.3187522219895615 0 -
.123478909895878 19 9 CCCCCCI5 frame230 0 CA5 owner12 0 Z7 351 0 1 0 0 3 0 V0 16
 255 8 225 0 ?13 0 14 5 0 0 1 18 255 9 345 0 15 0 16 6 ?1 17 255 15 0 0 0 0 9 17
 18 0 13 -18 16 342 0 19 9 20 12 ?1 17 19 0 21 13 22 16 23 14 0 24 +18 20 339 0
 22 16 25 26 ?1 29 12 344 0 16 26 6 -.269309502889571 0 -.275647952503103 29 26
 341 0 20 27 12 -.1658280862367165 0 -.434995360412734 29 27 338 0 25 28 26 -.13
38826658348248 0 -.459067961338816 18 25 336 0 29 20 30 27 ?1 29 28 335 0 30 31
 27 0 0 -.5 18 30 333 0 32 25 33 28 ?1 29 31 332 0 33 34 28 .1338826658348248 0
 -.459067961338816 18 33 330 0 35 30 36 31 ?1 29 34 329 0 36 37 31 .165828086236
7165 0 -.434995360412734 18 36 327 0 38 33 39 34 ?1 29 37 326 0 39 40 34 .269309
5028895705 0 -.275647952503103 18 39 324 0 41 36 42 37 ?1 29 40 323 0 42 43 37 .
3187522219895615 0 -.123478909895878 18 42 321 0 44 39 45 40 ?1 29 43 317 0 45 4
6 40 .329567238120397 0 .0828838911766086 18 45 315 0 47 42 48 43 ?1 29 46 314 0
 48 49 43 .289657771005037 0 .1681523509119235 18 48 312 0 50 45 51 46 ?1 29 49
 311 0 51 52 46 .1988380045814665 0 .2361847226536915 18 51 309 0 53 48 54 49 ?1
 29 52 308 0 54 55 49 .1388845182213676 0 .256149858542671 18 54 306 0 56 51 57
 52 ?1 29 55 305 0 57 58 52 -.1517179186901645 0 .256149858542671 18 57 303 0 59
 54 60 55 ?1 29 58 302 0 60 61 55 -.2155888419404585 0 .2330946774920655 18 60 3
00 0 62 57 63 58 ?1 29 61 299 0 63 64 58 -.293740786538419 0 .1682217344735055 1
8 63 297 0 65 60 66 61 ?1 29 64 296 0 66 67 61 -.329732816763583 0 .086043319899
8165 18 66 294 0 17 63 68 64 ?1 29 67 293 0 68 69 64 .3245740904466245 0 .083145
5709578236 18 68 291 0 70 66 71 67 ?1 29 69 287 0 71 72 67 .3137935251125545 0 -
.122559869752585 18 71 285 0 73 68 74 69 ?1 29 72 284 0 74 75 69 .26475763460362
7 0 -.273476822702643 18 74 282 0 76 71 77 72 ?1 29 75 281 0 77 78 72 .162114906
18009 0 -.4315327639923845 18 77 279 0 79 74 80 75 ?1 29 78 278 0 80 81 75 .1315
776956599306 0 -.454544202658693 18 80 276 0 82 77 83 78 ?1 29 81 275 0 83 84 78
 0 0 -.494771541217564 18 83 273 0 85 80 86 81 ?1 29 84 272 0 86 87 81 -.1315776
956599304 0 -.454544202658693 18 86 270 0 88 83 89 84 ?1 29 87 269 0 89 90 84 -.
16211490618009 0 -.431532763992385 18 89 267 0 91 86 92 87 ?1 29 90 266 0 92 93
 87 -.264757634603627 0 -.2734768227026425 18 92 264 0 94 89 95 90 ?1 29 93 263
 0 95 96 90 -.3137935251125535 0 -.1225598697525882 18 95 261 0 97 92 98 93 ?1 2
9 96 257 0 98 99 93 -.3247396690898105 0 .0863049996810316 18 98 255 0 100 95 10
1 96 ?1 29 99 254 0 101 102 96 -.2905472403759045 0 .1643744935260355 18 101 252
 0 103 98 104 99 ?1 29 102 251 0 104 105 99 -.2123952957779435 0 .22924743654459
6 18 104 249 0 106 101 107 102 ?1 29 105 248 0 107 108 102 -.151717918690165 0 .
251149858542671 18 107 246 0 109 104 110 105 ?1 29 108 245 0 110 111 105 .138884
518221368 0 .251149858542671 18 110 243 0 112 107 113 108 ?1 29 111 242 0 113 11
4 108 .195840330263461 0 .232182979448141 18 113 240 0 115 110 116 111 ?1 29 114
 239 0 116 0 111 .286660096687033 0 .164150607706372 18 116 237 0 117 113 0 114
 ?1 17 117 0 118 115 70 116 119 120 0 121 -15 255 118 7 0 117 10 21 17 115 0 118
 112 117 113 121 122 0 123 -17 70 0 118 117 73 68 124 125 0 119 +17 119 0 0 0 0
 68 117 120 0 0 +16 120 9 0 ?119 122 0 126 0 0 1 17 121 0 0 0 0 116 115 122 0 0
 +16 122 15 0 ?121 127 120 128 0 0 1 16 127 21 0 ?123 129 122 130 0 0 1 30 128 1
7 0 122 126 130 0 +.1818032145041205 0 .242698072308739 .800348641110208 0 -.599
534863600979 31 255 126 11 0 120 0 128 0 +.2297042846449395 0 .0881174868009027
 0 1 0 0 0 1 .095 31 130 23 0 127 128 131 0 +.138884518221368 0 .156149858542671
 0 1 0 0 0 1 .095 30 131 29 0 129 130 132 0 +0 0 .251149858542671 1 0 0 16 129 2
7 0 ?133 134 127 131 0 0 1 31 132 35 0 134 131 135 0 --.151717918690165 0 .15614
9858542671 0 1 0 0 0 1 .095 16 134 33 0 ?106 136 129 132 0 0 1 30 135 41 0 136 1
32 137 0 +-.199311043572521 0 .2401085091913415 -.769448189493946 0 -.6387092325
02935 16 136 39 0 ?103 138 134 135 0 0 1 31 137 47 0 138 135 139 0 +-.2298698632
88126 0 .0912769155241106 0 1 0 0 0 1 .095 16 138 45 0 ?140 141 136 137 0 0 1 30
 139 53 0 141 137 142 0 +-.319339525652651 0 -.01673587537675305 -.0523359562429
37 0 .998629534754574 16 141 51 0 ?143 144 138 139 0 0 1 30 142 65 0 144 139 145
 0 +-.319848351808445 0 -.1039250293101934 -.3090169943749415 0 .951056516295156
 16 144 63 0 ?146 147 141 142 0 0 1 30 145 71 0 147 142 148 0 +-.311138887640763
5 0 -.202055956172936 -.544639035015022 0 .838670567945428 16 147 69 0 ?149 150
 144 145 0 0 1 30 148 77 0 150 145 151 0 +-.266122949335181 0 -.3531570818295985
 -.79863551004729 0 .601815023152053 16 150 75 0 ?152 153 147 148 0 0 1 30 151 8
3 0 153 148 154 0 +-.1383363673440748 0 -.452477869358944 -.956304755963034 0 .2
92371704722741 16 153 81 0 ?155 156 150 151 0 0 1 30 154 89 0 156 151 157 0 +.13
8336367344075 0 -.452477869358944 .956304755963034 0 .292371704722741 16 156 87
 0 ?82 158 153 154 0 0 1 30 157 95 0 158 154 159 0 +.266122949335181 0 -.3531570
81829599 .79863551004729 0 .601815023152053 16 158 93 0 ?79 160 156 157 0 0 1 30
 159 101 0 160 157 161 0 +.3111388876407635 0 -.202055956172936 .544639035015022
 0 .838670567945428 16 160 99 0 ?76 162 158 159 0 0 1 30 161 107 0 162 159 163 0
 +.319848351808445 0 -.1039250293101934 .3090169943749415 0 .951056516295156 16
 162 105 0 ?73 125 160 161 0 0 1 30 163 113 0 125 161 164 0 +.319339525652652 0
 -.0167358753767528 .0523359562429362 0 .998629534754574 16 125 111 0 ?70 18 162
 163 0 0 1 30 164 125 0 18 163 165 0 +-.324332673326424 0 -.01699755515796755 -.
0523359562429364 0 .998629534754574 16 18 123 0 ?17 166 125 164 0 0 1 31 165 131
 0 166 164 167 0 +-.229869863288126 0 .0912769155241106 0 1 0 0 0 1 .1 16 166 12
9 0 ?65 168 18 165 0 0 1 30 167 137 0 168 165 169 0 +-.2025045897350355 0 .24395
5750138811 -.769448189493947 0 -.638709232502934 16 168 135 0 ?170 171 166 167 0
 0 1 31 169 143 0 171 167 172 0 --.151717918690165 0 .156149858542671 0 1 0 0 0
 1 .1 16 171 141 0 ?173 174 168 169 0 0 1 30 172 149 0 174 169 175 0 +0 0 .25614
9858542671 1 0 0 16 174 147 0 ?56 176 171 172 0 0 1 31 175 155 0 176 172 177 0 +
.138884518221368 0 .156149858542671 0 1 0 0 0 1 .1 16 176 153 0 ?53 178 174 175
 0 0 1 30 177 161 0 178 175 179 0 +.184800888822126 0 .2466998155142895 .8003486
41110206 0 -.599534863600981 16 178 159 0 ?50 180 176 177 0 0 1 31 179 167 0 180
 177 181 0 +.2297042846449395 0 .0881174868009027 0 1 0 0 0 1 .1 16 180 165 0 ?4
7 182 178 179 0 0 1 30 181 173 0 182 179 183 0 +.324332673326424 0 -.01699755515
796765 -.0523359562429368 0 -.998629534754574 16 182 171 0 ?44 184 180 181 0 0 1
 30 183 185 0 184 181 185 0 +.324603634389921 0 -.105470114282068 .3090169943749
415 0 .951056516295156 16 184 183 0 ?186 187 182 183 0 0 1 30 185 191 0 187 183
 188 0 +.315332240480491 0 -.2047791513480115 .544639035015022 0 .83867056794542
7 16 187 189 0 ?189 190 184 185 0 0 1 30 188 197 0 190 185 191 0 +.2691320244509
415 0 -.3571502593798355 .79863551004729 0 .601815023152053 16 190 195 0 ?192 19
3 187 188 0 0 1 30 191 203 0 193 188 194 0 +.1397982258676884 0 -.45725939313875
9 .956304755963034 0 .292371704722741 16 193 201 0 ?195 196 190 191 0 0 1 30 194
 209 0 196 191 197 0 +-.1397982258676884 0 -.457259393138759 -.956304755963034 0
 .292371704722741 16 196 207 0 ?29 198 193 194 0 0 1 30 197 215 0 198 194 11 0 +
-.2691320244509415 0 -.3571502593798355 -.79863551004729 0 .601815023152053 16 1
98 213 0 ?22 14 196 197 0 0 1 30 11 221 0 14 197 5 0 +-.315332240480491 0 -.2047
791513480115 -.544639035015022 0 .838670567945427 16 14 219 0 ?19 8 198 11 0 0 1
 17 22 0 21 19 29 20 199 198 0 23 +15 21 8 0 17 10 0 17 29 0 21 22 32 25 200 196
 0 199 +17 199 0 0 0 0 25 22 198 0 0 -17 23 0 0 0 0 20 19 14 0 0 -17 32 0 21 29
 35 30 195 193 0 200 -17 200 0 0 0 0 30 29 196 0 0 -17 35 0 21 32 38 33 192 190
 0 195 -17 195 0 0 0 0 33 32 193 0 0 +17 38 0 21 35 41 36 189 187 0 192 -17 192
 0 0 0 0 36 35 190 0 0 +17 41 0 21 38 44 39 186 184 0 189 -17 189 0 0 0 0 39 38
 187 0 0 +17 44 0 21 41 47 42 201 182 0 186 +17 186 0 0 0 0 42 41 184 0 0 +17 47
 0 21 44 50 45 202 180 0 201 +17 201 0 0 0 0 45 44 182 0 0 -17 50 0 21 47 53 48
 203 178 0 202 +17 202 0 0 0 0 48 47 180 0 0 -17 53 0 21 50 56 51 204 176 0 203
 +17 203 0 0 0 0 51 50 178 0 0 -17 56 0 21 53 59 54 205 174 0 204 +17 204 0 0 0
 0 54 53 176 0 0 -17 59 0 21 56 62 57 173 171 0 205 -17 205 0 0 0 0 57 56 174 0
 0 -17 62 0 21 59 65 60 170 168 0 173 -17 173 0 0 0 0 60 59 171 0 0 +17 65 0 21
 62 17 63 206 166 0 170 +17 170 0 0 0 0 63 62 168 0 0 +17 17 0 21 65 13 66 15 18
 0 206 +17 206 0 0 0 0 66 65 166 0 0 -17 13 0 21 17 19 9 24 8 0 0 +17 24 0 0 0 0
 16 13 8 0 0 -14 255 10 1 0 ?0 0 118 3 4 +0 0 0 0 3 17 73 0 118 70 76 71 207 162
 0 124 +17 76 0 118 73 79 74 208 160 0 207 +17 207 0 0 0 0 74 73 162 0 0 -17 124
 0 0 0 0 71 70 125 0 0 -17 79 0 118 76 82 77 209 158 0 208 +17 208 0 0 0 0 77 76
 160 0 0 -17 82 0 118 79 85 80 210 156 0 209 +17 209 0 0 0 0 80 79 158 0 0 -17 8
5 0 118 82 88 83 155 153 0 210 -17 210 0 0 0 0 83 82 156 0 0 -17 88 0 118 85 91
 86 152 150 0 155 -17 155 0 0 0 0 86 85 153 0 0 +17 91 0 118 88 94 89 149 147 0
 152 -17 152 0 0 0 0 89 88 150 0 0 +17 94 0 118 91 97 92 146 144 0 149 -17 149 0
 0 0 0 92 91 147 0 0 +17 97 0 118 94 100 95 143 141 0 146 -17 146 0 0 0 0 95 94
 144 0 0 +17 100 0 118 97 103 98 140 138 0 143 -17 143 0 0 0 0 98 97 141 0 0 +17
 103 0 118 100 106 101 211 136 0 140 +17 140 0 0 0 0 101 100 138 0 0 +17 106 0 1
18 103 109 104 212 134 0 211 +17 211 0 0 0 0 104 103 136 0 0 -17 109 0 118 106 1
12 107 133 129 0 212 -17 212 0 0 0 0 107 106 134 0 0 -17 112 0 118 109 115 110 1
23 127 0 133 -17 133 0 0 0 0 110 109 129 0 0 +17 123 0 0 0 0 113 112 127 0 0 +1
 0 
